<svg width="446" height="326" viewBox="0 0 446 326" fill="none" xmlns="http://www.w3.org/2000/svg">
<path d="M3.75 308V249.818H45.6818V262.545H19.5455V272.545H43.5227V285.273H19.5455V295.273H45.5682V308H3.75ZM82.3793 278.909V290.727H55.1065V278.909H82.3793ZM107.393 249.818V308H91.7116V249.818H107.393ZM136.293 308.795C131.634 308.795 127.618 307.905 124.247 306.125C120.895 304.326 118.31 301.75 116.491 298.398C114.692 295.027 113.793 290.992 113.793 286.295C113.793 281.788 114.702 277.848 116.52 274.477C118.338 271.106 120.904 268.483 124.219 266.608C127.533 264.733 131.444 263.795 135.952 263.795C139.247 263.795 142.23 264.307 144.901 265.33C147.571 266.352 149.853 267.839 151.747 269.79C153.641 271.722 155.099 274.07 156.122 276.835C157.145 279.6 157.656 282.716 157.656 286.182V289.818H118.679V281.182H143.224C143.205 279.932 142.884 278.833 142.259 277.886C141.652 276.92 140.829 276.172 139.787 275.642C138.764 275.093 137.599 274.818 136.293 274.818C135.024 274.818 133.859 275.093 132.798 275.642C131.738 276.172 130.885 276.911 130.241 277.858C129.616 278.805 129.285 279.913 129.247 281.182V290.5C129.247 291.902 129.541 293.152 130.128 294.25C130.715 295.348 131.558 296.21 132.656 296.835C133.755 297.46 135.08 297.773 136.634 297.773C137.713 297.773 138.698 297.621 139.588 297.318C140.497 297.015 141.274 296.58 141.918 296.011C142.562 295.424 143.035 294.723 143.338 293.909H157.656C157.164 296.939 155.999 299.572 154.162 301.807C152.325 304.023 149.891 305.746 146.861 306.977C143.849 308.189 140.327 308.795 136.293 308.795ZM176.214 308.682C173.43 308.682 170.968 308.227 168.828 307.318C166.707 306.39 165.04 304.989 163.828 303.114C162.616 301.239 162.01 298.852 162.01 295.955C162.01 293.568 162.417 291.532 163.232 289.847C164.046 288.142 165.182 286.75 166.641 285.67C168.099 284.591 169.794 283.767 171.726 283.199C173.677 282.631 175.779 282.261 178.033 282.091C180.476 281.902 182.436 281.674 183.913 281.409C185.41 281.125 186.489 280.737 187.152 280.244C187.815 279.733 188.146 279.061 188.146 278.227V278.114C188.146 276.977 187.711 276.106 186.839 275.5C185.968 274.894 184.851 274.591 183.487 274.591C181.991 274.591 180.769 274.922 179.822 275.585C178.894 276.229 178.336 277.223 178.146 278.568H163.714C163.904 275.917 164.747 273.473 166.243 271.239C167.758 268.985 169.964 267.186 172.862 265.841C175.76 264.477 179.377 263.795 183.714 263.795C186.839 263.795 189.643 264.165 192.124 264.903C194.605 265.623 196.716 266.636 198.459 267.943C200.201 269.231 201.527 270.746 202.436 272.489C203.364 274.212 203.828 276.087 203.828 278.114V308H189.169V301.864H188.828C187.957 303.492 186.896 304.809 185.646 305.812C184.415 306.816 183.004 307.545 181.413 308C179.841 308.455 178.108 308.682 176.214 308.682ZM181.328 298.795C182.521 298.795 183.639 298.549 184.68 298.057C185.741 297.564 186.603 296.854 187.266 295.926C187.929 294.998 188.26 293.871 188.26 292.545V288.909C187.843 289.08 187.398 289.241 186.925 289.392C186.47 289.544 185.978 289.686 185.447 289.818C184.936 289.951 184.387 290.074 183.8 290.188C183.232 290.301 182.635 290.405 182.01 290.5C180.798 290.689 179.804 291.002 179.027 291.438C178.269 291.854 177.701 292.375 177.322 293C176.963 293.606 176.783 294.288 176.783 295.045C176.783 296.258 177.209 297.186 178.061 297.83C178.913 298.473 180.002 298.795 181.328 298.795ZM211.321 308V264.364H226.548V272.659H227.003C227.798 269.591 229.058 267.347 230.781 265.926C232.524 264.506 234.56 263.795 236.889 263.795C237.571 263.795 238.243 263.852 238.906 263.966C239.588 264.061 240.241 264.203 240.866 264.392V277.773C240.09 277.508 239.134 277.309 237.997 277.176C236.861 277.044 235.885 276.977 235.071 276.977C233.537 276.977 232.154 277.328 230.923 278.028C229.711 278.71 228.755 279.676 228.054 280.926C227.353 282.157 227.003 283.606 227.003 285.273V308H211.321ZM261.69 283.455V308H246.009V264.364H260.895V272.659H261.349C262.296 269.894 263.963 267.725 266.349 266.153C268.755 264.581 271.558 263.795 274.759 263.795C277.846 263.795 280.526 264.506 282.798 265.926C285.09 267.328 286.861 269.259 288.111 271.722C289.38 274.184 290.005 276.996 289.986 280.159V308H274.304V283.455C274.323 281.295 273.774 279.6 272.656 278.369C271.558 277.138 270.024 276.523 268.054 276.523C266.766 276.523 265.639 276.807 264.673 277.375C263.726 277.924 262.997 278.72 262.486 279.761C261.974 280.784 261.709 282.015 261.69 283.455ZM297.727 308V264.364H313.409V308H297.727ZM305.568 259.818C303.447 259.818 301.629 259.117 300.114 257.716C298.598 256.314 297.841 254.629 297.841 252.659C297.841 250.689 298.598 249.004 300.114 247.602C301.629 246.201 303.447 245.5 305.568 245.5C307.708 245.5 309.527 246.201 311.023 247.602C312.538 249.004 313.295 250.689 313.295 252.659C313.295 254.629 312.538 256.314 311.023 257.716C309.527 259.117 307.708 259.818 305.568 259.818ZM337.081 283.455V308H321.399V264.364H336.286V272.659H336.74C337.687 269.894 339.354 267.725 341.74 266.153C344.145 264.581 346.948 263.795 350.149 263.795C353.236 263.795 355.916 264.506 358.189 265.926C360.481 267.328 362.251 269.259 363.501 271.722C364.77 274.184 365.395 276.996 365.376 280.159V308H349.695V283.455C349.714 281.295 349.164 279.6 348.047 278.369C346.948 277.138 345.414 276.523 343.445 276.523C342.157 276.523 341.03 276.807 340.064 277.375C339.117 277.924 338.388 278.72 337.876 279.761C337.365 280.784 337.1 282.015 337.081 283.455ZM394.141 325.273C389.766 325.273 386.016 324.648 382.891 323.398C379.785 322.167 377.37 320.462 375.646 318.284C373.942 316.125 372.985 313.644 372.777 310.841H387.891C388.042 311.769 388.421 312.517 389.027 313.085C389.633 313.653 390.41 314.061 391.357 314.307C392.322 314.572 393.402 314.705 394.595 314.705C396.622 314.705 398.298 314.212 399.624 313.227C400.968 312.242 401.641 310.462 401.641 307.886V300.5H401.186C400.618 301.977 399.747 303.237 398.572 304.278C397.398 305.301 395.987 306.087 394.339 306.636C392.692 307.167 390.883 307.432 388.913 307.432C385.807 307.432 382.947 306.712 380.334 305.273C377.739 303.833 375.656 301.551 374.084 298.426C372.531 295.301 371.754 291.22 371.754 286.182C371.754 280.917 372.569 276.636 374.197 273.341C375.845 270.045 377.966 267.631 380.561 266.097C383.175 264.562 385.921 263.795 388.8 263.795C390.959 263.795 392.853 264.174 394.482 264.932C396.11 265.67 397.474 266.665 398.572 267.915C399.671 269.146 400.504 270.5 401.072 271.977H401.413V264.364H417.095V307.886C417.095 311.58 416.139 314.714 414.226 317.29C412.332 319.884 409.661 321.864 406.214 323.227C402.768 324.591 398.743 325.273 394.141 325.273ZM394.709 296.295C396.148 296.295 397.379 295.898 398.402 295.102C399.444 294.288 400.239 293.133 400.788 291.636C401.357 290.121 401.641 288.303 401.641 286.182C401.641 284.023 401.357 282.176 400.788 280.642C400.239 279.089 399.444 277.905 398.402 277.091C397.379 276.258 396.148 275.841 394.709 275.841C393.269 275.841 392.038 276.258 391.016 277.091C390.012 277.905 389.235 279.089 388.686 280.642C388.156 282.176 387.891 284.023 387.891 286.182C387.891 288.341 388.156 290.178 388.686 291.693C389.235 293.189 390.012 294.335 391.016 295.131C392.038 295.907 393.269 296.295 394.709 296.295Z" fill="url(#paint0_linear_1_12)"/>
<path d="M312.609 116.612C320.3 119.599 321.269 130.09 314.255 134.435L139.802 242.51C133.487 246.422 125.261 242.326 124.578 234.929L107.735 52.5584C107.052 45.1609 114.388 39.6275 121.313 42.317L312.609 116.612Z" fill="url(#paint1_radial_1_12)"/>
<path d="M222.506 91.7787L236.434 134.644H281.505L245.042 161.137L258.969 204.002L222.506 177.51L186.042 204.002L199.97 161.137L163.507 134.644H208.578L222.506 91.7787Z" fill="white"/>
<defs>
<linearGradient id="paint0_linear_1_12" x1="0.206128" y1="236.5" x2="273.002" y2="331.758" gradientUnits="userSpaceOnUse">
<stop stop-color="#FF0000"/>
<stop offset="0.0001" stop-color="#FFAE34"/>
<stop offset="1" stop-color="#FF5C00"/>
</linearGradient>
<radialGradient id="paint1_radial_1_12" cx="0" cy="0" r="1" gradientUnits="userSpaceOnUse" gradientTransform="translate(187.872 137.12) rotate(174.723) scale(144.042 124.4)">
<stop stop-color="#F54545"/>
<stop offset="1" stop-color="#FFC700" stop-opacity="0.96"/>
</radialGradient>
</defs>
</svg>
